<svg xmlns="http://www.w3.org/2000/svg" version="1.1" xmlns:xlink="http://www.w3.org/1999/xlink" xmlns:svgjs="http://svgjs.com/svgjs" width="1440" height="560" preserveAspectRatio="none" viewBox="0 0 1440 560"><g mask="url(&quot;#SvgjsMask1067&quot;)" fill="none"><rect width="1440" height="560" x="0" y="0" fill="rgba(243, 243, 243, 1)"></rect><path d="M 0,144 C 41.2,132.6 123.6,65.2 206,87 C 288.4,108.8 329.6,261 412,253 C 494.4,245 535.6,54 618,47 C 700.4,40 741.6,216.2 824,218 C 906.4,219.8 947.6,65.8 1030,56 C 1112.4,46.2 1154,160 1236,169 C 1318,178 1399.2,114.6 1440,101L1440 560L0 560z" fill="rgba(14, 125, 22, 1)"></path><path d="M 0,387 C 96,401.8 288,471.2 480,461 C 672,450.8 768,343.2 960,336 C 1152,328.8 1344,407.2 1440,425L1440 560L0 560z" fill="rgba(197, 43, 43, 1)"></path></g><defs><mask id="SvgjsMask1067"><rect width="1440" height="560" fill="#ffffff"></rect></mask></defs></svg>